<svg width="25" height="24" viewBox="0 0 25 24" fill="none" xmlns="http://www.w3.org/2000/svg">
<path d="M12.5 0C19.1276 0 24.5 5.3724 24.5 12C24.5 18.6276 19.1276 24 12.5 24C5.8724 24 0.5 18.6276 0.5 12C0.5 5.3724 5.8724 0 12.5 0ZM12.5 1.674C9.76137 1.674 7.13492 2.76191 5.19842 4.69842C3.26191 6.63492 2.174 9.26137 2.174 12C2.174 14.7386 3.26191 17.3651 5.19842 19.3016C7.13492 21.2381 9.76137 22.326 12.5 22.326C15.2386 22.326 17.8651 21.2381 19.8016 19.3016C21.7381 17.3651 22.826 14.7386 22.826 12C22.826 9.26137 21.7381 6.63492 19.8016 4.69842C17.8651 2.76191 15.2386 1.674 12.5 1.674ZM14.9576 4.1856C15.7378 4.48059 16.4673 4.89515 17.12 5.4144C17.27 5.5296 17.414 5.652 17.5556 5.7828C17.582 5.8056 17.6048 5.8296 17.63 5.8548C18.0236 6.2184 18.3812 6.6276 18.698 7.0668C18.7424 7.128 18.7892 7.1844 18.83 7.2432C18.9068 7.356 18.9788 7.4736 19.0508 7.5912C19.1746 7.78955 19.2888 7.99379 19.3928 8.2032C19.4564 8.3232 19.5128 8.454 19.5716 8.5812C19.6112 8.6688 19.6556 8.7588 19.6916 8.8524C19.7792 9.0708 19.8572 9.2904 19.928 9.5148C19.9508 9.5892 19.9688 9.6684 19.9904 9.7428C20.1121 10.1698 20.1984 10.606 20.2484 11.0472C20.2568 11.1264 20.2688 11.2104 20.2748 11.2884C20.2988 11.5464 20.3144 11.8068 20.3144 12.0684C20.3129 12.5796 20.2659 13.0896 20.174 13.5924C20.1572 13.68 20.1428 13.7688 20.126 13.8528C20.078 14.0808 20.0228 14.304 19.958 14.5248C19.3472 14.2452 18.6296 13.8336 18.4424 13.3812C18.1016 12.5652 17.1944 12.1572 16.8248 11.106C16.2164 9.366 17.024 9.4116 17.1368 8.3316C17.1896 7.8252 16.8248 7.7196 16.3436 7.926C15.2204 8.3976 14.84 8.2164 14.6132 7.3704C14.3864 6.5268 14.6132 6.2916 14.6132 6.2916C13.8476 6.3756 13.8188 5.4432 14.216 5.208C14.492 5.0496 14.726 4.5636 14.9576 4.1856ZM11.7488 9.3564C12.4568 9.0324 13.1108 8.916 13.0244 8.3592C12.9404 7.8084 12.7412 7.398 11.6348 7.398C10.5284 7.398 11.0108 8.916 10.1036 8.01C9.1964 7.11 10.3016 7.3428 10.7552 7.1376C11.21 6.9312 11.6636 6.0852 10.8692 6.0252C10.076 5.9688 10.2452 6.3756 9.6212 6.1452C8.9972 5.91 8.714 6.96 8.3156 6.8136C8.054 6.7152 7.352 6.1752 6.8864 5.6436C5.93632 6.46996 5.18418 7.49934 4.6856 8.6556C4.8212 10.224 5.6504 11.0472 5.6504 11.0472C5.6504 11.0472 6.0764 12.0684 8.63 13.3236C8.63 13.3236 9.11 13.3524 8.5436 12.7704C7.9772 12.186 7.352 11.4564 8.0612 11.0784C8.7692 10.6956 8.9696 10.728 9.14 11.43C9.3092 12.1308 9.878 11.718 9.9332 11.0472C9.9908 10.3788 11.0396 9.6804 11.7488 9.3564ZM11.2088 12.8844C12.4304 12.8844 12.3164 13.2648 13.2812 14.1144C14.2448 14.9592 13.7348 15.8052 13.2512 16.4484C12.77 17.0892 12.344 17.8164 12.1172 19.134C11.8892 20.4468 11.294 19.5108 11.0972 19.1904C10.898 18.8676 10.586 18.5772 10.6724 17.2344C10.7564 15.8928 9.848 16.6824 9.5372 14.9304C9.2252 13.1808 9.9908 12.8856 11.21 12.8856L11.2088 12.8844ZM17.1812 14.0412C17.5064 13.8336 18.2852 14.3748 18.1172 14.9448C17.9456 15.5148 17.408 15.1932 17.138 14.9448C16.868 14.6976 16.8536 14.2452 17.1812 14.0412Z" fill="white"/>
</svg>
