    <svg width="21" height="21" viewBox="0 0 21 21" fill="none" xmlns="http://www.w3.org/2000/svg">
<path d="M19.4 0.5H1.6C1.30826 0.5 1.02847 0.615893 0.822183 0.822183C0.615893 1.02847 0.5 1.30826 0.5 1.6V19.4C0.5 19.6917 0.615893 19.9715 0.822183 20.1778C1.02847 20.3841 1.30826 20.5 1.6 20.5H11.18V12.75H8.58V9.75H11.18V7.5C11.1261 6.97176 11.1885 6.43813 11.3627 5.93654C11.5369 5.43495 11.8188 4.97755 12.1885 4.59641C12.5582 4.21528 13.0068 3.91964 13.5028 3.73024C13.9989 3.54083 14.5304 3.46225 15.06 3.5C15.8383 3.49463 16.6163 3.53469 17.39 3.62V6.32H15.8C14.54 6.32 14.3 6.92 14.3 7.79V9.72H17.3L16.91 12.72H14.3V20.5H19.4C19.5445 20.5 19.6875 20.4715 19.821 20.4163C19.9544 20.361 20.0757 20.28 20.1778 20.1778C20.28 20.0757 20.361 19.9544 20.4163 19.821C20.4715 19.6875 20.5 19.5445 20.5 19.4V1.6C20.5 1.45555 20.4715 1.31251 20.4163 1.17905C20.361 1.04559 20.28 0.924327 20.1778 0.822183C20.0757 0.720038 19.9544 0.639013 19.821 0.583733C19.6875 0.528452 19.5445 0.5 19.4 0.5Z" fill="black"/>
</svg>
