<svg width="25" height="24" viewBox="0 0 25 24" fill="none" xmlns="http://www.w3.org/2000/svg">
<path d="M22.2388 16.4137C22.0716 17.6841 21.4477 18.8501 20.4837 19.6941C19.5196 20.5381 18.2813 21.0023 17 21C9.55626 21 3.50001 14.9437 3.50001 7.49999C3.49771 6.2187 3.9619 4.98039 4.80588 4.01633C5.64986 3.05228 6.81592 2.42841 8.08626 2.26124C8.4075 2.22202 8.7328 2.28774 9.01362 2.44859C9.29444 2.60944 9.5157 2.8568 9.64438 3.15374L11.6244 7.57406V7.58531C11.7229 7.81261 11.7636 8.06077 11.7428 8.30763C11.722 8.55449 11.6404 8.79236 11.5053 8.99999C11.4884 9.02531 11.4706 9.04874 11.4519 9.07218L9.50001 11.3859C10.2022 12.8128 11.6947 14.2922 13.1403 14.9962L15.4222 13.0547C15.4446 13.0358 15.4681 13.0183 15.4925 13.0022C15.7 12.8638 15.9387 12.7793 16.187 12.7564C16.4353 12.7335 16.6854 12.7729 16.9147 12.8709L16.9269 12.8766L21.3434 14.8556C21.6409 14.9838 21.8889 15.2049 22.0503 15.4858C22.2116 15.7666 22.2778 16.0922 22.2388 16.4137Z" fill="white"/>
</svg>
