<svg width="19" height="19" viewBox="0 0 19 19" fill="none" xmlns="http://www.w3.org/2000/svg">
<path d="M9.5 0.5C7.11305 0.5 4.82387 1.44821 3.13604 3.13604C1.44821 4.82387 0.5 7.11305 0.5 9.5C0.5 11.8869 1.44821 14.1761 3.13604 15.864C4.82387 17.5518 7.11305 18.5 9.5 18.5C11.8869 18.5 14.1761 17.5518 15.864 15.864C17.5518 14.1761 18.5 11.8869 18.5 9.5C18.5 7.11305 17.5518 4.82387 15.864 3.13604C14.1761 1.44821 11.8869 0.5 9.5 0.5ZM1.61 10.18H4.12C4.16 11.09 4.287 11.994 4.5 12.88H2.34C1.93802 12.0306 1.69081 11.1163 1.61 10.18ZM10.18 4.78V1.69C11.1437 2.05622 11.9356 2.76962 12.4 3.69C12.6053 4.03733 12.7853 4.39733 12.94 4.77L10.18 4.78ZM13.4 6.13C13.632 7.013 13.77 7.918 13.81 8.83H10.18V6.13H13.4ZM8.82 1.69V4.78H6.06C6.21417 4.40765 6.39463 4.04674 6.6 3.7C7.06247 2.77585 7.85459 2.05866 8.82 1.69ZM8.82 6.13V8.83H5.2C5.24 7.918 5.378 7.013 5.61 6.13H8.82ZM4.12 8.82H1.61C1.69081 7.88375 1.93802 6.96942 2.34 6.12H4.5C4.28579 7.00549 4.15851 7.90978 4.12 8.82ZM5.2 10.18H8.82V12.88H5.61C5.37892 11.9969 5.24149 11.0919 5.2 10.18ZM8.83 14.18V17.27C7.86632 16.9038 7.07445 16.1904 6.61 15.27C6.40463 14.9233 6.22417 14.5623 6.07 14.19L8.83 14.18ZM10.18 17.27V14.23H12.94C12.7858 14.6023 12.6054 14.9633 12.4 15.31C11.9356 16.2304 11.1437 16.9438 10.18 17.31V17.27ZM10.18 12.83V10.13H13.8C13.7585 11.0419 13.6211 11.9469 13.39 12.83H10.18ZM14.89 10.13H17.4C17.3192 11.0663 17.072 11.9806 16.67 12.83H14.5C14.71 11.96 14.837 11.073 14.88 10.18L14.89 10.13ZM14.89 8.78C14.845 7.88623 14.7144 6.99884 14.5 6.13H16.66C17.063 6.98 17.31 7.894 17.39 8.83L14.89 8.78ZM15.89 4.78H14.1C13.7764 3.87015 13.307 3.01903 12.71 2.26C13.9544 2.81858 15.0353 3.68605 15.85 4.78H15.89ZM6.29 2.26C5.69302 3.01903 5.22355 3.87015 4.9 4.78H3.15C3.96472 3.68605 5.04562 2.81858 6.29 2.26ZM3.14 14.26H4.9C5.22355 15.1698 5.69302 16.021 6.29 16.78C5.04218 16.213 3.96095 15.3349 3.15 14.23L3.14 14.26ZM12.7 16.78C13.297 16.021 13.7664 15.1698 14.09 14.26H15.85C15.0303 15.3393 13.9498 16.1927 12.71 16.74L12.7 16.78Z" fill="black"/>
</svg>
